<svg width="120" height="45" viewBox="0 0 120 45" fill="none" xmlns="http://www.w3.org/2000/svg">
<g clip-path="url(#clip0_1022_34500)">
<path d="M111.631 3.56488C111.238 3.56488 110.899 3.31241 110.899 2.72668C110.899 2.14096 111.238 1.87334 111.631 1.88344C111.924 1.88849 112.182 2.03492 112.303 2.37323L112.732 2.21165C112.545 1.72186 112.116 1.47444 111.637 1.47444C111 1.46434 110.445 1.87839 110.45 2.72668C110.455 3.56488 111 3.97893 111.637 3.97893C112.121 3.96883 112.545 3.72646 112.732 3.23162L112.303 3.07509C112.182 3.4134 111.929 3.56488 111.631 3.56488ZM111.631 3.56488C111.238 3.56488 110.899 3.31241 110.899 2.72668C110.899 2.14096 111.238 1.87334 111.631 1.88344C111.924 1.88849 112.182 2.03492 112.303 2.37323L112.732 2.21165C112.545 1.72186 112.116 1.47444 111.637 1.47444C111 1.46434 110.445 1.87839 110.45 2.72668C110.455 3.56488 111 3.97893 111.637 3.97893C112.121 3.96883 112.545 3.72646 112.732 3.23162L112.303 3.07509C112.182 3.4134 111.929 3.56488 111.631 3.56488ZM111.631 3.56488C111.238 3.56488 110.899 3.31241 110.899 2.72668C110.899 2.14096 111.238 1.87334 111.631 1.88344C111.924 1.88849 112.182 2.03492 112.303 2.37323L112.732 2.21165C112.545 1.72186 112.116 1.47444 111.637 1.47444C111 1.46434 110.445 1.87839 110.45 2.72668C110.455 3.56488 111 3.97893 111.637 3.97893C112.121 3.96883 112.545 3.72646 112.732 3.23162L112.303 3.07509C112.182 3.4134 111.929 3.56488 111.631 3.56488ZM111.631 3.56488C111.238 3.56488 110.899 3.31241 110.899 2.72668C110.899 2.14096 111.238 1.87334 111.631 1.88344C111.924 1.88849 112.182 2.03492 112.303 2.37323L112.732 2.21165C112.545 1.72186 112.116 1.47444 111.637 1.47444C111 1.46434 110.445 1.87839 110.45 2.72668C110.455 3.56488 111 3.97893 111.637 3.97893C112.121 3.96883 112.545 3.72646 112.732 3.23162L112.303 3.07509C112.182 3.4134 111.929 3.56488 111.631 3.56488ZM111.631 3.56488C111.238 3.56488 110.899 3.31241 110.899 2.72668C110.899 2.14096 111.238 1.87334 111.631 1.88344C111.924 1.88849 112.182 2.03492 112.303 2.37323L112.732 2.21165C112.545 1.72186 112.116 1.47444 111.637 1.47444C111 1.46434 110.445 1.87839 110.45 2.72668C110.455 3.56488 111 3.97893 111.637 3.97893C112.121 3.96883 112.545 3.72646 112.732 3.23162L112.303 3.07509C112.182 3.4134 111.929 3.56488 111.631 3.56488ZM111.631 3.56488C111.238 3.56488 110.899 3.31241 110.899 2.72668C110.899 2.14096 111.238 1.87334 111.631 1.88344C111.924 1.88849 112.182 2.03492 112.303 2.37323L112.732 2.21165C112.545 1.72186 112.116 1.47444 111.637 1.47444C111 1.46434 110.445 1.87839 110.45 2.72668C110.455 3.56488 111 3.97893 111.637 3.97893C112.121 3.96883 112.545 3.72646 112.732 3.23162L112.303 3.07509C112.182 3.4134 111.929 3.56488 111.631 3.56488ZM111.631 3.56488C111.238 3.56488 110.899 3.31241 110.899 2.72668C110.899 2.14096 111.238 1.87334 111.631 1.88344C111.924 1.88849 112.182 2.03492 112.303 2.37323L112.732 2.21165C112.545 1.72186 112.116 1.47444 111.637 1.47444C111 1.46434 110.445 1.87839 110.45 2.72668C110.455 3.56488 111 3.97893 111.637 3.97893C112.121 3.96883 112.545 3.72646 112.732 3.23162L112.303 3.07509C112.182 3.4134 111.929 3.56488 111.631 3.56488ZM111.631 3.56488C111.238 3.56488 110.899 3.31241 110.899 2.72668C110.899 2.14096 111.238 1.87334 111.631 1.88344C111.924 1.88849 112.182 2.03492 112.303 2.37323L112.732 2.21165C112.545 1.72186 112.116 1.47444 111.637 1.47444C111 1.46434 110.445 1.87839 110.45 2.72668C110.455 3.56488 111 3.97893 111.637 3.97893C112.121 3.96883 112.545 3.72646 112.732 3.23162L112.303 3.07509C112.182 3.4134 111.929 3.56488 111.631 3.56488ZM111.601 0.51001C110.374 0.51001 109.385 1.50979 109.385 2.72668C109.385 3.94358 110.374 4.95346 111.601 4.95346C112.828 4.95346 113.828 3.95368 113.828 2.72668C113.828 1.49969 112.828 0.51001 111.601 0.51001ZM111.601 4.53436C110.601 4.53436 109.799 3.72646 109.799 2.72668C109.799 1.72691 110.601 0.924058 111.601 0.924058C112.601 0.924058 113.409 1.73701 113.409 2.72668C113.409 3.71636 112.601 4.53436 111.601 4.53436ZM111.631 1.88344C111.924 1.88849 112.182 2.03492 112.303 2.37323L112.732 2.21165C112.545 1.72186 112.116 1.47444 111.637 1.47444C111 1.46434 110.445 1.87839 110.45 2.72668C110.455 3.56488 111 3.97893 111.637 3.97893C112.121 3.96883 112.545 3.72646 112.732 3.23162L112.303 3.07509C112.182 3.4134 111.929 3.56488 111.631 3.56488C111.238 3.56488 110.899 3.31241 110.899 2.72668C110.899 2.14096 111.238 1.87334 111.631 1.88344ZM111.631 3.56488C111.238 3.56488 110.899 3.31241 110.899 2.72668C110.899 2.14096 111.238 1.87334 111.631 1.88344C111.924 1.88849 112.182 2.03492 112.303 2.37323L112.732 2.21165C112.545 1.72186 112.116 1.47444 111.637 1.47444C111 1.46434 110.445 1.87839 110.45 2.72668C110.455 3.56488 111 3.97893 111.637 3.97893C112.121 3.96883 112.545 3.72646 112.732 3.23162L112.303 3.07509C112.182 3.4134 111.929 3.56488 111.631 3.56488ZM111.631 3.56488C111.238 3.56488 110.899 3.31241 110.899 2.72668C110.899 2.14096 111.238 1.87334 111.631 1.88344C111.924 1.88849 112.182 2.03492 112.303 2.37323L112.732 2.21165C112.545 1.72186 112.116 1.47444 111.637 1.47444C111 1.46434 110.445 1.87839 110.45 2.72668C110.455 3.56488 111 3.97893 111.637 3.97893C112.121 3.96883 112.545 3.72646 112.732 3.23162L112.303 3.07509C112.182 3.4134 111.929 3.56488 111.631 3.56488ZM111.631 3.56488C111.238 3.56488 110.899 3.31241 110.899 2.72668C110.899 2.14096 111.238 1.87334 111.631 1.88344C111.924 1.88849 112.182 2.03492 112.303 2.37323L112.732 2.21165C112.545 1.72186 112.116 1.47444 111.637 1.47444C111 1.46434 110.445 1.87839 110.45 2.72668C110.455 3.56488 111 3.97893 111.637 3.97893C112.121 3.96883 112.545 3.72646 112.732 3.23162L112.303 3.07509C112.182 3.4134 111.929 3.56488 111.631 3.56488ZM111.631 3.56488C111.238 3.56488 110.899 3.31241 110.899 2.72668C110.899 2.14096 111.238 1.87334 111.631 1.88344C111.924 1.88849 112.182 2.03492 112.303 2.37323L112.732 2.21165C112.545 1.72186 112.116 1.47444 111.637 1.47444C111 1.46434 110.445 1.87839 110.45 2.72668C110.455 3.56488 111 3.97893 111.637 3.97893C112.121 3.96883 112.545 3.72646 112.732 3.23162L112.303 3.07509C112.182 3.4134 111.929 3.56488 111.631 3.56488ZM111.631 3.56488C111.238 3.56488 110.899 3.31241 110.899 2.72668C110.899 2.14096 111.238 1.87334 111.631 1.88344C111.924 1.88849 112.182 2.03492 112.303 2.37323L112.732 2.21165C112.545 1.72186 112.116 1.47444 111.637 1.47444C111 1.46434 110.445 1.87839 110.45 2.72668C110.455 3.56488 111 3.97893 111.637 3.97893C112.121 3.96883 112.545 3.72646 112.732 3.23162L112.303 3.07509C112.182 3.4134 111.929 3.56488 111.631 3.56488ZM111.631 3.56488C111.238 3.56488 110.899 3.31241 110.899 2.72668C110.899 2.14096 111.238 1.87334 111.631 1.88344C111.924 1.88849 112.182 2.03492 112.303 2.37323L112.732 2.21165C112.545 1.72186 112.116 1.47444 111.637 1.47444C111 1.46434 110.445 1.87839 110.45 2.72668C110.455 3.56488 111 3.97893 111.637 3.97893C112.121 3.96883 112.545 3.72646 112.732 3.23162L112.303 3.07509C112.182 3.4134 111.929 3.56488 111.631 3.56488Z" fill="white"/>
<path d="M111.631 3.56488C111.238 3.56488 110.899 3.31241 110.899 2.72668C110.899 2.14096 111.238 1.87334 111.631 1.88344C111.924 1.88849 112.182 2.03492 112.303 2.37323L112.732 2.21165C112.545 1.72186 112.116 1.47444 111.637 1.47444C111 1.46434 110.445 1.87839 110.45 2.72668C110.455 3.56488 111 3.97893 111.637 3.97893C112.121 3.96883 112.545 3.72646 112.732 3.23162L112.303 3.07509C112.182 3.4134 111.929 3.56488 111.631 3.56488ZM112.657 3.26192C112.48 3.67092 112.111 3.91329 111.631 3.91834H111.621C111.303 3.91834 111.031 3.80725 110.834 3.62042C110.617 3.4033 110.5 3.10034 110.5 2.72163C110.495 2.34798 110.612 2.03997 110.819 1.82285C111.015 1.63097 111.303 1.51988 111.621 1.51988H111.631C112.111 1.52493 112.475 1.7673 112.657 2.1763L112.333 2.29244C112.202 1.98948 111.965 1.82285 111.631 1.82285H111.616C111.409 1.82285 111.228 1.88849 111.086 2.02482C110.925 2.1763 110.849 2.41867 110.849 2.72163C110.849 3.37805 111.253 3.62042 111.631 3.62042C111.955 3.62042 112.202 3.44369 112.333 3.14073L112.657 3.25687V3.26192ZM111.631 3.56488C111.238 3.56488 110.899 3.31241 110.899 2.72668C110.899 2.14096 111.238 1.87334 111.631 1.88344C111.924 1.88849 112.182 2.03492 112.303 2.37323L112.732 2.21165C112.545 1.72186 112.116 1.47444 111.637 1.47444C111 1.46434 110.445 1.87839 110.45 2.72668C110.455 3.56488 111 3.97893 111.637 3.97893C112.121 3.96883 112.545 3.72646 112.732 3.23162L112.303 3.07509C112.182 3.4134 111.929 3.56488 111.631 3.56488ZM112.657 3.26192C112.48 3.67092 112.111 3.91329 111.631 3.91834H111.621C111.303 3.91834 111.031 3.80725 110.834 3.62042C110.617 3.4033 110.5 3.10034 110.5 2.72163C110.495 2.34798 110.612 2.03997 110.819 1.82285C111.015 1.63097 111.303 1.51988 111.621 1.51988H111.631C112.111 1.52493 112.475 1.7673 112.657 2.1763L112.333 2.29244C112.202 1.98948 111.965 1.82285 111.631 1.82285H111.616C111.409 1.82285 111.228 1.88849 111.086 2.02482C110.925 2.1763 110.849 2.41867 110.849 2.72163C110.849 3.37805 111.253 3.62042 111.631 3.62042C111.955 3.62042 112.202 3.44369 112.333 3.14073L112.657 3.25687V3.26192ZM111.631 3.56488C111.238 3.56488 110.899 3.31241 110.899 2.72668C110.899 2.14096 111.238 1.87334 111.631 1.88344C111.924 1.88849 112.182 2.03492 112.303 2.37323L112.732 2.21165C112.545 1.72186 112.116 1.47444 111.637 1.47444C111 1.46434 110.445 1.87839 110.45 2.72668C110.455 3.56488 111 3.97893 111.637 3.97893C112.121 3.96883 112.545 3.72646 112.732 3.23162L112.303 3.07509C112.182 3.4134 111.929 3.56488 111.631 3.56488ZM112.657 3.26192C112.48 3.67092 112.111 3.91329 111.631 3.91834H111.621C111.303 3.91834 111.031 3.80725 110.834 3.62042C110.617 3.4033 110.5 3.10034 110.5 2.72163C110.495 2.34798 110.612 2.03997 110.819 1.82285C111.015 1.63097 111.303 1.51988 111.621 1.51988H111.631C112.111 1.52493 112.475 1.7673 112.657 2.1763L112.333 2.29244C112.202 1.98948 111.965 1.82285 111.631 1.82285H111.616C111.409 1.82285 111.228 1.88849 111.086 2.02482C110.925 2.1763 110.849 2.41867 110.849 2.72163C110.849 3.37805 111.253 3.62042 111.631 3.62042C111.955 3.62042 112.202 3.44369 112.333 3.14073L112.657 3.25687V3.26192ZM111.631 3.56488C111.238 3.56488 110.899 3.31241 110.899 2.72668C110.899 2.14096 111.238 1.87334 111.631 1.88344C111.924 1.88849 112.182 2.03492 112.303 2.37323L112.732 2.21165C112.545 1.72186 112.116 1.47444 111.637 1.47444C111 1.46434 110.445 1.87839 110.45 2.72668C110.455 3.56488 111 3.97893 111.637 3.97893C112.121 3.96883 112.545 3.72646 112.732 3.23162L112.303 3.07509C112.182 3.4134 111.929 3.56488 111.631 3.56488ZM112.657 3.26192C112.48 3.67092 112.111 3.91329 111.631 3.91834H111.621C111.303 3.91834 111.031 3.80725 110.834 3.62042C110.617 3.4033 110.5 3.10034 110.5 2.72163C110.495 2.34798 110.612 2.03997 110.819 1.82285C111.015 1.63097 111.303 1.51988 111.621 1.51988H111.631C112.111 1.52493 112.475 1.7673 112.657 2.1763L112.333 2.29244C112.202 1.98948 111.965 1.82285 111.631 1.82285H111.616C111.409 1.82285 111.228 1.88849 111.086 2.02482C110.925 2.1763 110.849 2.41867 110.849 2.72163C110.849 3.37805 111.253 3.62042 111.631 3.62042C111.955 3.62042 112.202 3.44369 112.333 3.14073L112.657 3.25687V3.26192ZM111.631 3.56488C111.238 3.56488 110.899 3.31241 110.899 2.72668C110.899 2.14096 111.238 1.87334 111.631 1.88344C111.924 1.88849 112.182 2.03492 112.303 2.37323L112.732 2.21165C112.545 1.72186 112.116 1.47444 111.637 1.47444C111 1.46434 110.445 1.87839 110.45 2.72668C110.455 3.56488 111 3.97893 111.637 3.97893C112.121 3.96883 112.545 3.72646 112.732 3.23162L112.303 3.07509C112.182 3.4134 111.929 3.56488 111.631 3.56488ZM112.657 3.26192C112.48 3.67092 112.111 3.91329 111.631 3.91834H111.621C111.303 3.91834 111.031 3.80725 110.834 3.62042C110.617 3.4033 110.5 3.10034 110.5 2.72163C110.495 2.34798 110.612 2.03997 110.819 1.82285C111.015 1.63097 111.303 1.51988 111.621 1.51988H111.631C112.111 1.52493 112.475 1.7673 112.657 2.1763L112.333 2.29244C112.202 1.98948 111.965 1.82285 111.631 1.82285H111.616C111.409 1.82285 111.228 1.88849 111.086 2.02482C110.925 2.1763 110.849 2.41867 110.849 2.72163C110.849 3.37805 111.253 3.62042 111.631 3.62042C111.955 3.62042 112.202 3.44369 112.333 3.14073L112.657 3.25687V3.26192ZM111.631 3.56488C111.238 3.56488 110.899 3.31241 110.899 2.72668C110.899 2.14096 111.238 1.87334 111.631 1.88344C111.924 1.88849 112.182 2.03492 112.303 2.37323L112.732 2.21165C112.545 1.72186 112.116 1.47444 111.637 1.47444C111 1.46434 110.445 1.87839 110.45 2.72668C110.455 3.56488 111 3.97893 111.637 3.97893C112.121 3.96883 112.545 3.72646 112.732 3.23162L112.303 3.07509C112.182 3.4134 111.929 3.56488 111.631 3.56488ZM112.657 3.26192C112.48 3.67092 112.111 3.91329 111.631 3.91834H111.621C111.303 3.91834 111.031 3.80725 110.834 3.62042C110.617 3.4033 110.5 3.10034 110.5 2.72163C110.495 2.34798 110.612 2.03997 110.819 1.82285C111.015 1.63097 111.303 1.51988 111.621 1.51988H111.631C112.111 1.52493 112.475 1.7673 112.657 2.1763L112.333 2.29244C112.202 1.98948 111.965 1.82285 111.631 1.82285H111.616C111.409 1.82285 111.228 1.88849 111.086 2.02482C110.925 2.1763 110.849 2.41867 110.849 2.72163C110.849 3.37805 111.253 3.62042 111.631 3.62042C111.955 3.62042 112.202 3.44369 112.333 3.14073L112.657 3.25687V3.26192ZM111.631 3.56488C111.238 3.56488 110.899 3.31241 110.899 2.72668C110.899 2.14096 111.238 1.87334 111.631 1.88344C111.924 1.88849 112.182 2.03492 112.303 2.37323L112.732 2.21165C112.545 1.72186 112.116 1.47444 111.637 1.47444C111 1.46434 110.445 1.87839 110.45 2.72668C110.455 3.56488 111 3.97893 111.637 3.97893C112.121 3.96883 112.545 3.72646 112.732 3.23162L112.303 3.07509C112.182 3.4134 111.929 3.56488 111.631 3.56488ZM112.657 3.26192C112.48 3.67092 112.111 3.91329 111.631 3.91834H111.621C111.303 3.91834 111.031 3.80725 110.834 3.62042C110.617 3.4033 110.5 3.10034 110.5 2.72163C110.495 2.34798 110.612 2.03997 110.819 1.82285C111.015 1.63097 111.303 1.51988 111.621 1.51988H111.631C112.111 1.52493 112.475 1.7673 112.657 2.1763L112.333 2.29244C112.202 1.98948 111.965 1.82285 111.631 1.82285H111.616C111.409 1.82285 111.228 1.88849 111.086 2.02482C110.925 2.1763 110.849 2.41867 110.849 2.72163C110.849 3.37805 111.253 3.62042 111.631 3.62042C111.955 3.62042 112.202 3.44369 112.333 3.14073L112.657 3.25687V3.26192ZM111.631 3.56488C111.238 3.56488 110.899 3.31241 110.899 2.72668C110.899 2.14096 111.238 1.87334 111.631 1.88344C111.924 1.88849 112.182 2.03492 112.303 2.37323L112.732 2.21165C112.545 1.72186 112.116 1.47444 111.637 1.47444C111 1.46434 110.445 1.87839 110.45 2.72668C110.455 3.56488 111 3.97893 111.637 3.97893C112.121 3.96883 112.545 3.72646 112.732 3.23162L112.303 3.07509C112.182 3.4134 111.929 3.56488 111.631 3.56488ZM112.657 3.26192C112.48 3.67092 112.111 3.91329 111.631 3.91834H111.621C111.303 3.91834 111.031 3.80725 110.834 3.62042C110.617 3.4033 110.5 3.10034 110.5 2.72163C110.495 2.34798 110.612 2.03997 110.819 1.82285C111.015 1.63097 111.303 1.51988 111.621 1.51988H111.631C112.111 1.52493 112.475 1.7673 112.657 2.1763L112.333 2.29244C112.202 1.98948 111.965 1.82285 111.631 1.82285H111.616C111.409 1.82285 111.228 1.88849 111.086 2.02482C110.925 2.1763 110.849 2.41867 110.849 2.72163C110.849 3.37805 111.253 3.62042 111.631 3.62042C111.955 3.62042 112.202 3.44369 112.333 3.14073L112.657 3.25687V3.26192ZM111.631 3.56488C111.238 3.56488 110.899 3.31241 110.899 2.72668C110.899 2.14096 111.238 1.87334 111.631 1.88344C111.924 1.88849 112.182 2.03492 112.303 2.37323L112.732 2.21165C112.545 1.72186 112.116 1.47444 111.637 1.47444C111 1.46434 110.445 1.87839 110.45 2.72668C110.455 3.56488 111 3.97893 111.637 3.97893C112.121 3.96883 112.545 3.72646 112.732 3.23162L112.303 3.07509C112.182 3.4134 111.929 3.56488 111.631 3.56488ZM112.657 3.26192C112.48 3.67092 112.111 3.91329 111.631 3.91834H111.621C111.303 3.91834 111.031 3.80725 110.834 3.62042C110.617 3.4033 110.5 3.10034 110.5 2.72163C110.495 2.34798 110.612 2.03997 110.819 1.82285C111.015 1.63097 111.303 1.51988 111.621 1.51988H111.631C112.111 1.52493 112.475 1.7673 112.657 2.1763L112.333 2.29244C112.202 1.98948 111.965 1.82285 111.631 1.82285H111.616C111.409 1.82285 111.228 1.88849 111.086 2.02482C110.925 2.1763 110.849 2.41867 110.849 2.72163C110.849 3.37805 111.253 3.62042 111.631 3.62042C111.955 3.62042 112.202 3.44369 112.333 3.14073L112.657 3.25687V3.26192ZM111.631 3.56488C111.238 3.56488 110.899 3.31241 110.899 2.72668C110.899 2.14096 111.238 1.87334 111.631 1.88344C111.924 1.88849 112.182 2.03492 112.303 2.37323L112.732 2.21165C112.545 1.72186 112.116 1.47444 111.637 1.47444C111 1.46434 110.445 1.87839 110.45 2.72668C110.455 3.56488 111 3.97893 111.637 3.97893C112.121 3.96883 112.545 3.72646 112.732 3.23162L112.303 3.07509C112.182 3.4134 111.929 3.56488 111.631 3.56488ZM112.657 3.26192C112.48 3.67092 112.111 3.91329 111.631 3.91834H111.621C111.303 3.91834 111.031 3.80725 110.834 3.62042C110.617 3.4033 110.5 3.10034 110.5 2.72163C110.495 2.34798 110.612 2.03997 110.819 1.82285C111.015 1.63097 111.303 1.51988 111.621 1.51988H111.631C112.111 1.52493 112.475 1.7673 112.657 2.1763L112.333 2.29244C112.202 1.98948 111.965 1.82285 111.631 1.82285H111.616C111.409 1.82285 111.228 1.88849 111.086 2.02482C110.925 2.1763 110.849 2.41867 110.849 2.72163C110.849 3.37805 111.253 3.62042 111.631 3.62042C111.955 3.62042 112.202 3.44369 112.333 3.14073L112.657 3.25687V3.26192ZM111.631 3.56488C111.238 3.56488 110.899 3.31241 110.899 2.72668C110.899 2.14096 111.238 1.87334 111.631 1.88344C111.924 1.88849 112.182 2.03492 112.303 2.37323L112.732 2.21165C112.545 1.72186 112.116 1.47444 111.637 1.47444C111 1.46434 110.445 1.87839 110.45 2.72668C110.455 3.56488 111 3.97893 111.637 3.97893C112.121 3.96883 112.545 3.72646 112.732 3.23162L112.303 3.07509C112.182 3.4134 111.929 3.56488 111.631 3.56488ZM112.657 3.26192C112.48 3.67092 112.111 3.91329 111.631 3.91834H111.621C111.303 3.91834 111.031 3.80725 110.834 3.62042C110.617 3.4033 110.5 3.10034 110.5 2.72163C110.495 2.34798 110.612 2.03997 110.819 1.82285C111.015 1.63097 111.303 1.51988 111.621 1.51988H111.631C112.111 1.52493 112.475 1.7673 112.657 2.1763L112.333 2.29244C112.202 1.98948 111.965 1.82285 111.631 1.82285H111.616C111.409 1.82285 111.228 1.88849 111.086 2.02482C110.925 2.1763 110.849 2.41867 110.849 2.72163C110.849 3.37805 111.253 3.62042 111.631 3.62042C111.955 3.62042 112.202 3.44369 112.333 3.14073L112.657 3.25687V3.26192ZM111.631 3.56488C111.238 3.56488 110.899 3.31241 110.899 2.72668C110.899 2.14096 111.238 1.87334 111.631 1.88344C111.924 1.88849 112.182 2.03492 112.303 2.37323L112.732 2.21165C112.545 1.72186 112.116 1.47444 111.637 1.47444C111 1.46434 110.445 1.87839 110.45 2.72668C110.455 3.56488 111 3.97893 111.637 3.97893C112.121 3.96883 112.545 3.72646 112.732 3.23162L112.303 3.07509C112.182 3.4134 111.929 3.56488 111.631 3.56488ZM112.657 3.26192C112.48 3.67092 112.111 3.91329 111.631 3.91834H111.621C111.303 3.91834 111.031 3.80725 110.834 3.62042C110.617 3.4033 110.5 3.10034 110.5 2.72163C110.495 2.34798 110.612 2.03997 110.819 1.82285C111.015 1.63097 111.303 1.51988 111.621 1.51988H111.631C112.111 1.52493 112.475 1.7673 112.657 2.1763L112.333 2.29244C112.202 1.98948 111.965 1.82285 111.631 1.82285H111.616C111.409 1.82285 111.228 1.88849 111.086 2.02482C110.925 2.1763 110.849 2.41867 110.849 2.72163C110.849 3.37805 111.253 3.62042 111.631 3.62042C111.955 3.62042 112.202 3.44369 112.333 3.14073L112.657 3.25687V3.26192ZM111.631 3.56488C111.238 3.56488 110.899 3.31241 110.899 2.72668C110.899 2.14096 111.238 1.87334 111.631 1.88344C111.924 1.88849 112.182 2.03492 112.303 2.37323L112.732 2.21165C112.545 1.72186 112.116 1.47444 111.637 1.47444C111 1.46434 110.445 1.87839 110.45 2.72668C110.455 3.56488 111 3.97893 111.637 3.97893C112.121 3.96883 112.545 3.72646 112.732 3.23162L112.303 3.07509C112.182 3.4134 111.929 3.56488 111.631 3.56488ZM112.657 3.26192C112.48 3.67092 112.111 3.91329 111.631 3.91834H111.621C111.303 3.91834 111.031 3.80725 110.834 3.62042C110.617 3.4033 110.5 3.10034 110.5 2.72163C110.495 2.34798 110.612 2.03997 110.819 1.82285C111.015 1.63097 111.303 1.51988 111.621 1.51988H111.631C112.111 1.52493 112.475 1.7673 112.657 2.1763L112.333 2.29244C112.202 1.98948 111.965 1.82285 111.631 1.82285H111.616C111.409 1.82285 111.228 1.88849 111.086 2.02482C110.925 2.1763 110.849 2.41867 110.849 2.72163C110.849 3.37805 111.253 3.62042 111.631 3.62042C111.955 3.62042 112.202 3.44369 112.333 3.14073L112.657 3.25687V3.26192ZM111.631 3.56488C111.238 3.56488 110.899 3.31241 110.899 2.72668C110.899 2.14096 111.238 1.87334 111.631 1.88344C111.924 1.88849 112.182 2.03492 112.303 2.37323L112.732 2.21165C112.545 1.72186 112.116 1.47444 111.637 1.47444C111 1.46434 110.445 1.87839 110.45 2.72668C110.455 3.56488 111 3.97893 111.637 3.97893C112.121 3.96883 112.545 3.72646 112.732 3.23162L112.303 3.07509C112.182 3.4134 111.929 3.56488 111.631 3.56488ZM112.657 3.26192C112.48 3.67092 112.111 3.91329 111.631 3.91834H111.621C111.303 3.91834 111.031 3.80725 110.834 3.62042C110.617 3.4033 110.5 3.10034 110.5 2.72163C110.495 2.34798 110.612 2.03997 110.819 1.82285C111.015 1.63097 111.303 1.51988 111.621 1.51988H111.631C112.111 1.52493 112.475 1.7673 112.657 2.1763L112.333 2.29244C112.202 1.98948 111.965 1.82285 111.631 1.82285H111.616C111.409 1.82285 111.228 1.88849 111.086 2.02482C110.925 2.1763 110.849 2.41867 110.849 2.72163C110.849 3.37805 111.253 3.62042 111.631 3.62042C111.955 3.62042 112.202 3.44369 112.333 3.14073L112.657 3.25687V3.26192ZM111.631 3.56488C111.238 3.56488 110.899 3.31241 110.899 2.72668C110.899 2.14096 111.238 1.87334 111.631 1.88344C111.924 1.88849 112.182 2.03492 112.303 2.37323L112.732 2.21165C112.545 1.72186 112.116 1.47444 111.637 1.47444C111 1.46434 110.445 1.87839 110.45 2.72668C110.455 3.56488 111 3.97893 111.637 3.97893C112.121 3.96883 112.545 3.72646 112.732 3.23162L112.303 3.07509C112.182 3.4134 111.929 3.56488 111.631 3.56488ZM112.657 3.26192C112.48 3.67092 112.111 3.91329 111.631 3.91834H111.621C111.303 3.91834 111.031 3.80725 110.834 3.62042C110.617 3.4033 110.5 3.10034 110.5 2.72163C110.495 2.34798 110.612 2.03997 110.819 1.82285C111.015 1.63097 111.303 1.51988 111.621 1.51988H111.631C112.111 1.52493 112.475 1.7673 112.657 2.1763L112.333 2.29244C112.202 1.98948 111.965 1.82285 111.631 1.82285H111.616C111.409 1.82285 111.228 1.88849 111.086 2.02482C110.925 2.1763 110.849 2.41867 110.849 2.72163C110.849 3.37805 111.253 3.62042 111.631 3.62042C111.955 3.62042 112.202 3.44369 112.333 3.14073L112.657 3.25687V3.26192ZM111.631 3.56488C111.238 3.56488 110.899 3.31241 110.899 2.72668C110.899 2.14096 111.238 1.87334 111.631 1.88344C111.924 1.88849 112.182 2.03492 112.303 2.37323L112.732 2.21165C112.545 1.72186 112.116 1.47444 111.637 1.47444C111 1.46434 110.445 1.87839 110.45 2.72668C110.455 3.56488 111 3.97893 111.637 3.97893C112.121 3.96883 112.545 3.72646 112.732 3.23162L112.303 3.07509C112.182 3.4134 111.929 3.56488 111.631 3.56488ZM112.657 3.26192C112.48 3.67092 112.111 3.91329 111.631 3.91834H111.621C111.303 3.91834 111.031 3.80725 110.834 3.62042C110.617 3.4033 110.5 3.10034 110.5 2.72163C110.495 2.34798 110.612 2.03997 110.819 1.82285C111.015 1.63097 111.303 1.51988 111.621 1.51988H111.631C112.111 1.52493 112.475 1.7673 112.657 2.1763L112.333 2.29244C112.202 1.98948 111.965 1.82285 111.631 1.82285H111.616C111.409 1.82285 111.228 1.88849 111.086 2.02482C110.925 2.1763 110.849 2.41867 110.849 2.72163C110.849 3.37805 111.253 3.62042 111.631 3.62042C111.955 3.62042 112.202 3.44369 112.333 3.14073L112.657 3.25687V3.26192ZM111.631 3.56488C111.238 3.56488 110.899 3.31241 110.899 2.72668C110.899 2.14096 111.238 1.87334 111.631 1.88344C111.924 1.88849 112.182 2.03492 112.303 2.37323L112.732 2.21165C112.545 1.72186 112.116 1.47444 111.637 1.47444C111 1.46434 110.445 1.87839 110.45 2.72668C110.455 3.56488 111 3.97893 111.637 3.97893C112.121 3.96883 112.545 3.72646 112.732 3.23162L112.303 3.07509C112.182 3.4134 111.929 3.56488 111.631 3.56488ZM112.657 3.26192C112.48 3.67092 112.111 3.91329 111.631 3.91834H111.621C111.303 3.91834 111.031 3.80725 110.834 3.62042C110.617 3.4033 110.5 3.10034 110.5 2.72163C110.495 2.34798 110.612 2.03997 110.819 1.82285C111.015 1.63097 111.303 1.51988 111.621 1.51988H111.631C112.111 1.52493 112.475 1.7673 112.657 2.1763L112.333 2.29244C112.202 1.98948 111.965 1.82285 111.631 1.82285H111.616C111.409 1.82285 111.228 1.88849 111.086 2.02482C110.925 2.1763 110.849 2.41867 110.849 2.72163C110.849 3.37805 111.253 3.62042 111.631 3.62042C111.955 3.62042 112.202 3.44369 112.333 3.14073L112.657 3.25687V3.26192ZM111.631 3.56488C111.238 3.56488 110.899 3.31241 110.899 2.72668C110.899 2.14096 111.238 1.87334 111.631 1.88344C111.924 1.88849 112.182 2.03492 112.303 2.37323L112.732 2.21165C112.545 1.72186 112.116 1.47444 111.637 1.47444C111 1.46434 110.445 1.87839 110.45 2.72668C110.455 3.56488 111 3.97893 111.637 3.97893C112.121 3.96883 112.545 3.72646 112.732 3.23162L112.303 3.07509C112.182 3.4134 111.929 3.56488 111.631 3.56488ZM112.657 3.26192C112.48 3.67092 112.111 3.91329 111.631 3.91834H111.621C111.303 3.91834 111.031 3.80725 110.834 3.62042C110.617 3.4033 110.5 3.10034 110.5 2.72163C110.495 2.34798 110.612 2.03997 110.819 1.82285C111.015 1.63097 111.303 1.51988 111.621 1.51988H111.631C112.111 1.52493 112.475 1.7673 112.657 2.1763L112.333 2.29244C112.202 1.98948 111.965 1.82285 111.631 1.82285H111.616C111.409 1.82285 111.228 1.88849 111.086 2.02482C110.925 2.1763 110.849 2.41867 110.849 2.72163C110.849 3.37805 111.253 3.62042 111.631 3.62042C111.955 3.62042 112.202 3.44369 112.333 3.14073L112.657 3.25687V3.26192ZM111.631 3.56488C111.238 3.56488 110.899 3.31241 110.899 2.72668C110.899 2.14096 111.238 1.87334 111.631 1.88344C111.924 1.88849 112.182 2.03492 112.303 2.37323L112.732 2.21165C112.545 1.72186 112.116 1.47444 111.637 1.47444C111 1.46434 110.445 1.87839 110.45 2.72668C110.455 3.56488 111 3.97893 111.637 3.97893C112.121 3.96883 112.545 3.72646 112.732 3.23162L112.303 3.07509C112.182 3.4134 111.929 3.56488 111.631 3.56488ZM112.657 3.26192C112.48 3.67092 112.111 3.91329 111.631 3.91834H111.621C111.303 3.91834 111.031 3.80725 110.834 3.62042C110.617 3.4033 110.5 3.10034 110.5 2.72163C110.495 2.34798 110.612 2.03997 110.819 1.82285C111.015 1.63097 111.303 1.51988 111.621 1.51988H111.631C112.111 1.52493 112.475 1.7673 112.657 2.1763L112.333 2.29244C112.202 1.98948 111.965 1.82285 111.631 1.82285H111.616C111.409 1.82285 111.228 1.88849 111.086 2.02482C110.925 2.1763 110.849 2.41867 110.849 2.72163C110.849 3.37805 111.253 3.62042 111.631 3.62042C111.955 3.62042 112.202 3.44369 112.333 3.14073L112.657 3.25687V3.26192ZM111.631 3.56488C111.238 3.56488 110.899 3.31241 110.899 2.72668C110.899 2.14096 111.238 1.87334 111.631 1.88344C111.924 1.88849 112.182 2.03492 112.303 2.37323L112.732 2.21165C112.545 1.72186 112.116 1.47444 111.637 1.47444C111 1.46434 110.445 1.87839 110.45 2.72668C110.455 3.56488 111 3.97893 111.637 3.97893C112.121 3.96883 112.545 3.72646 112.732 3.23162L112.303 3.07509C112.182 3.4134 111.929 3.56488 111.631 3.56488ZM112.657 3.26192C112.48 3.67092 112.111 3.91329 111.631 3.91834H111.621C111.303 3.91834 111.031 3.80725 110.834 3.62042C110.617 3.4033 110.5 3.10034 110.5 2.72163C110.495 2.34798 110.612 2.03997 110.819 1.82285C111.015 1.63097 111.303 1.51988 111.621 1.51988H111.631C112.111 1.52493 112.475 1.7673 112.657 2.1763L112.333 2.29244C112.202 1.98948 111.965 1.82285 111.631 1.82285H111.616C111.409 1.82285 111.228 1.88849 111.086 2.02482C110.925 2.1763 110.849 2.41867 110.849 2.72163C110.849 3.37805 111.253 3.62042 111.631 3.62042C111.955 3.62042 112.202 3.44369 112.333 3.14073L112.657 3.25687V3.26192ZM111.601 0.51001C110.374 0.51001 109.385 1.50979 109.385 2.72668C109.385 3.94358 110.374 4.95346 111.601 4.95346C112.828 4.95346 113.828 3.95368 113.828 2.72668C113.828 1.49969 112.828 0.51001 111.601 0.51001ZM111.601 4.89791C110.41 4.89791 109.435 3.93348 109.435 2.73173C109.435 1.52998 110.41 0.565553 111.601 0.565553C112.793 0.565553 113.772 1.54008 113.772 2.73173C113.772 3.92338 112.793 4.89791 111.601 4.89791ZM111.631 1.88344C111.924 1.88849 112.182 2.03492 112.303 2.37323L112.732 2.21165C112.545 1.72186 112.116 1.47444 111.637 1.47444C111 1.46434 110.445 1.87839 110.45 2.72668C110.455 3.56488 111 3.97893 111.637 3.97893C112.121 3.96883 112.545 3.72646 112.732 3.23162L112.303 3.07509C112.182 3.4134 111.929 3.56488 111.631 3.56488C111.238 3.56488 110.899 3.31241 110.899 2.72668C110.899 2.14096 111.238 1.87334 111.631 1.88344ZM110.849 2.72668C110.849 3.3831 111.253 3.62547 111.631 3.62547C111.955 3.62547 112.202 3.44874 112.333 3.14578L112.657 3.26192C112.48 3.67092 112.111 3.91329 111.631 3.91834H111.621C111.303 3.91834 111.031 3.80725 110.834 3.62042C110.617 3.4033 110.5 3.10034 110.5 2.72163C110.495 2.34798 110.612 2.03997 110.819 1.82285C111.015 1.63097 111.303 1.51988 111.621 1.51988H111.631C112.111 1.52493 112.475 1.7673 112.657 2.1763L112.333 2.29244C112.202 1.98948 111.965 1.82285 111.631 1.82285H111.616C111.409 1.82285 111.228 1.88849 111.086 2.02482C110.925 2.1763 110.849 2.41867 110.849 2.72163V2.72668ZM111.631 3.56488C111.238 3.56488 110.899 3.31241 110.899 2.72668C110.899 2.14096 111.238 1.87334 111.631 1.88344C111.924 1.88849 112.182 2.03492 112.303 2.37323L112.732 2.21165C112.545 1.72186 112.116 1.47444 111.637 1.47444C111 1.46434 110.445 1.87839 110.45 2.72668C110.455 3.56488 111 3.97893 111.637 3.97893C112.121 3.96883 112.545 3.72646 112.732 3.23162L112.303 3.07509C112.182 3.4134 111.929 3.56488 111.631 3.56488ZM112.657 3.26192C112.48 3.67092 112.111 3.91329 111.631 3.91834H111.621C111.303 3.91834 111.031 3.80725 110.834 3.62042C110.617 3.4033 110.5 3.10034 110.5 2.72163C110.495 2.34798 110.612 2.03997 110.819 1.82285C111.015 1.63097 111.303 1.51988 111.621 1.51988H111.631C112.111 1.52493 112.475 1.7673 112.657 2.1763L112.333 2.29244C112.202 1.98948 111.965 1.82285 111.631 1.82285H111.616C111.409 1.82285 111.228 1.88849 111.086 2.02482C110.925 2.1763 110.849 2.41867 110.849 2.72163C110.849 3.37805 111.253 3.62042 111.631 3.62042C111.955 3.62042 112.202 3.44369 112.333 3.14073L112.657 3.25687V3.26192ZM111.631 3.56488C111.238 3.56488 110.899 3.31241 110.899 2.72668C110.899 2.14096 111.238 1.87334 111.631 1.88344C111.924 1.88849 112.182 2.03492 112.303 2.37323L112.732 2.21165C112.545 1.72186 112.116 1.47444 111.637 1.47444C111 1.46434 110.445 1.87839 110.45 2.72668C110.455 3.56488 111 3.97893 111.637 3.97893C112.121 3.96883 112.545 3.72646 112.732 3.23162L112.303 3.07509C112.182 3.4134 111.929 3.56488 111.631 3.56488ZM112.657 3.26192C112.48 3.67092 112.111 3.91329 111.631 3.91834H111.621C111.303 3.91834 111.031 3.80725 110.834 3.62042C110.617 3.4033 110.5 3.10034 110.5 2.72163C110.495 2.34798 110.612 2.03997 110.819 1.82285C111.015 1.63097 111.303 1.51988 111.621 1.51988H111.631C112.111 1.52493 112.475 1.7673 112.657 2.1763L112.333 2.29244C112.202 1.98948 111.965 1.82285 111.631 1.82285H111.616C111.409 1.82285 111.228 1.88849 111.086 2.02482C110.925 2.1763 110.849 2.41867 110.849 2.72163C110.849 3.37805 111.253 3.62042 111.631 3.62042C111.955 3.62042 112.202 3.44369 112.333 3.14073L112.657 3.25687V3.26192ZM111.631 3.56488C111.238 3.56488 110.899 3.31241 110.899 2.72668C110.899 2.14096 111.238 1.87334 111.631 1.88344C111.924 1.88849 112.182 2.03492 112.303 2.37323L112.732 2.21165C112.545 1.72186 112.116 1.47444 111.637 1.47444C111 1.46434 110.445 1.87839 110.45 2.72668C110.455 3.56488 111 3.97893 111.637 3.97893C112.121 3.96883 112.545 3.72646 112.732 3.23162L112.303 3.07509C112.182 3.4134 111.929 3.56488 111.631 3.56488ZM112.657 3.26192C112.48 3.67092 112.111 3.91329 111.631 3.91834H111.621C111.303 3.91834 111.031 3.80725 110.834 3.62042C110.617 3.4033 110.5 3.10034 110.5 2.72163C110.495 2.34798 110.612 2.03997 110.819 1.82285C111.015 1.63097 111.303 1.51988 111.621 1.51988H111.631C112.111 1.52493 112.475 1.7673 112.657 2.1763L112.333 2.29244C112.202 1.98948 111.965 1.82285 111.631 1.82285H111.616C111.409 1.82285 111.228 1.88849 111.086 2.02482C110.925 2.1763 110.849 2.41867 110.849 2.72163C110.849 3.37805 111.253 3.62042 111.631 3.62042C111.955 3.62042 112.202 3.44369 112.333 3.14073L112.657 3.25687V3.26192ZM111.631 3.56488C111.238 3.56488 110.899 3.31241 110.899 2.72668C110.899 2.14096 111.238 1.87334 111.631 1.88344C111.924 1.88849 112.182 2.03492 112.303 2.37323L112.732 2.21165C112.545 1.72186 112.116 1.47444 111.637 1.47444C111 1.46434 110.445 1.87839 110.45 2.72668C110.455 3.56488 111 3.97893 111.637 3.97893C112.121 3.96883 112.545 3.72646 112.732 3.23162L112.303 3.07509C112.182 3.4134 111.929 3.56488 111.631 3.56488ZM112.657 3.26192C112.48 3.67092 112.111 3.91329 111.631 3.91834H111.621C111.303 3.91834 111.031 3.80725 110.834 3.62042C110.617 3.4033 110.5 3.10034 110.5 2.72163C110.495 2.34798 110.612 2.03997 110.819 1.82285C111.015 1.63097 111.303 1.51988 111.621 1.51988H111.631C112.111 1.52493 112.475 1.7673 112.657 2.1763L112.333 2.29244C112.202 1.98948 111.965 1.82285 111.631 1.82285H111.616C111.409 1.82285 111.228 1.88849 111.086 2.02482C110.925 2.1763 110.849 2.41867 110.849 2.72163C110.849 3.37805 111.253 3.62042 111.631 3.62042C111.955 3.62042 112.202 3.44369 112.333 3.14073L112.657 3.25687V3.26192ZM111.631 3.56488C111.238 3.56488 110.899 3.31241 110.899 2.72668C110.899 2.14096 111.238 1.87334 111.631 1.88344C111.924 1.88849 112.182 2.03492 112.303 2.37323L112.732 2.21165C112.545 1.72186 112.116 1.47444 111.637 1.47444C111 1.46434 110.445 1.87839 110.45 2.72668C110.455 3.56488 111 3.97893 111.637 3.97893C112.121 3.96883 112.545 3.72646 112.732 3.23162L112.303 3.07509C112.182 3.4134 111.929 3.56488 111.631 3.56488ZM112.657 3.26192C112.48 3.67092 112.111 3.91329 111.631 3.91834H111.621C111.303 3.91834 111.031 3.80725 110.834 3.62042C110.617 3.4033 110.5 3.10034 110.5 2.72163C110.495 2.34798 110.612 2.03997 110.819 1.82285C111.015 1.63097 111.303 1.51988 111.621 1.51988H111.631C112.111 1.52493 112.475 1.7673 112.657 2.1763L112.333 2.29244C112.202 1.98948 111.965 1.82285 111.631 1.82285H111.616C111.409 1.82285 111.228 1.88849 111.086 2.02482C110.925 2.1763 110.849 2.41867 110.849 2.72163C110.849 3.37805 111.253 3.62042 111.631 3.62042C111.955 3.62042 112.202 3.44369 112.333 3.14073L112.657 3.25687V3.26192ZM111.631 3.56488C111.238 3.56488 110.899 3.31241 110.899 2.72668C110.899 2.14096 111.238 1.87334 111.631 1.88344C111.924 1.88849 112.182 2.03492 112.303 2.37323L112.732 2.21165C112.545 1.72186 112.116 1.47444 111.637 1.47444C111 1.46434 110.445 1.87839 110.45 2.72668C110.455 3.56488 111 3.97893 111.637 3.97893C112.121 3.96883 112.545 3.72646 112.732 3.23162L112.303 3.07509C112.182 3.4134 111.929 3.56488 111.631 3.56488ZM112.657 3.26192C112.48 3.67092 112.111 3.91329 111.631 3.91834H111.621C111.303 3.91834 111.031 3.80725 110.834 3.62042C110.617 3.4033 110.5 3.10034 110.5 2.72163C110.495 2.34798 110.612 2.03997 110.819 1.82285C111.015 1.63097 111.303 1.51988 111.621 1.51988H111.631C112.111 1.52493 112.475 1.7673 112.657 2.1763L112.333 2.29244C112.202 1.98948 111.965 1.82285 111.631 1.82285H111.616C111.409 1.82285 111.228 1.88849 111.086 2.02482C110.925 2.1763 110.849 2.41867 110.849 2.72163C110.849 3.37805 111.253 3.62042 111.631 3.62042C111.955 3.62042 112.202 3.44369 112.333 3.14073L112.657 3.25687V3.26192ZM111.631 3.56488C111.238 3.56488 110.899 3.31241 110.899 2.72668C110.899 2.14096 111.238 1.87334 111.631 1.88344C111.924 1.88849 112.182 2.03492 112.303 2.37323L112.732 2.21165C112.545 1.72186 112.116 1.47444 111.637 1.47444C111 1.46434 110.445 1.87839 110.45 2.72668C110.455 3.56488 111 3.97893 111.637 3.97893C112.121 3.96883 112.545 3.72646 112.732 3.23162L112.303 3.07509C112.182 3.4134 111.929 3.56488 111.631 3.56488ZM112.657 3.26192C112.48 3.67092 112.111 3.91329 111.631 3.91834H111.621C111.303 3.91834 111.031 3.80725 110.834 3.62042C110.617 3.4033 110.5 3.10034 110.5 2.72163C110.495 2.34798 110.612 2.03997 110.819 1.82285C111.015 1.63097 111.303 1.51988 111.621 1.51988H111.631C112.111 1.52493 112.475 1.7673 112.657 2.1763L112.333 2.29244C112.202 1.98948 111.965 1.82285 111.631 1.82285H111.616C111.409 1.82285 111.228 1.88849 111.086 2.02482C110.925 2.1763 110.849 2.41867 110.849 2.72163C110.849 3.37805 111.253 3.62042 111.631 3.62042C111.955 3.62042 112.202 3.44369 112.333 3.14073L112.657 3.25687V3.26192ZM111.631 3.56488C111.238 3.56488 110.899 3.31241 110.899 2.72668C110.899 2.14096 111.238 1.87334 111.631 1.88344C111.924 1.88849 112.182 2.03492 112.303 2.37323L112.732 2.21165C112.545 1.72186 112.116 1.47444 111.637 1.47444C111 1.46434 110.445 1.87839 110.45 2.72668C110.455 3.56488 111 3.97893 111.637 3.97893C112.121 3.96883 112.545 3.72646 112.732 3.23162L112.303 3.07509C112.182 3.4134 111.929 3.56488 111.631 3.56488ZM112.657 3.26192C112.48 3.67092 112.111 3.91329 111.631 3.91834H111.621C111.303 3.91834 111.031 3.80725 110.834 3.62042C110.617 3.4033 110.5 3.10034 110.5 2.72163C110.495 2.34798 110.612 2.03997 110.819 1.82285C111.015 1.63097 111.303 1.51988 111.621 1.51988H111.631C112.111 1.52493 112.475 1.7673 112.657 2.1763L112.333 2.29244C112.202 1.98948 111.965 1.82285 111.631 1.82285H111.616C111.409 1.82285 111.228 1.88849 111.086 2.02482C110.925 2.1763 110.849 2.41867 110.849 2.72163C110.849 3.37805 111.253 3.62042 111.631 3.62042C111.955 3.62042 112.202 3.44369 112.333 3.14073L112.657 3.25687V3.26192ZM111.631 3.56488C111.238 3.56488 110.899 3.31241 110.899 2.72668C110.899 2.14096 111.238 1.87334 111.631 1.88344C111.924 1.88849 112.182 2.03492 112.303 2.37323L112.732 2.21165C112.545 1.72186 112.116 1.47444 111.637 1.47444C111 1.46434 110.445 1.87839 110.45 2.72668C110.455 3.56488 111 3.97893 111.637 3.97893C112.121 3.96883 112.545 3.72646 112.732 3.23162L112.303 3.07509C112.182 3.4134 111.929 3.56488 111.631 3.56488ZM112.657 3.26192C112.48 3.67092 112.111 3.91329 111.631 3.91834H111.621C111.303 3.91834 111.031 3.80725 110.834 3.62042C110.617 3.4033 110.5 3.10034 110.5 2.72163C110.495 2.34798 110.612 2.03997 110.819 1.82285C111.015 1.63097 111.303 1.51988 111.621 1.51988H111.631C112.111 1.52493 112.475 1.7673 112.657 2.1763L112.333 2.29244C112.202 1.98948 111.965 1.82285 111.631 1.82285H111.616C111.409 1.82285 111.228 1.88849 111.086 2.02482C110.925 2.1763 110.849 2.41867 110.849 2.72163C110.849 3.37805 111.253 3.62042 111.631 3.62042C111.955 3.62042 112.202 3.44369 112.333 3.14073L112.657 3.25687V3.26192ZM111.631 3.56488C111.238 3.56488 110.899 3.31241 110.899 2.72668C110.899 2.14096 111.238 1.87334 111.631 1.88344C111.924 1.88849 112.182 2.03492 112.303 2.37323L112.732 2.21165C112.545 1.72186 112.116 1.47444 111.637 1.47444C111 1.46434 110.445 1.87839 110.45 2.72668C110.455 3.56488 111 3.97893 111.637 3.97893C112.121 3.96883 112.545 3.72646 112.732 3.23162L112.303 3.07509C112.182 3.4134 111.929 3.56488 111.631 3.56488ZM112.657 3.26192C112.48 3.67092 112.111 3.91329 111.631 3.91834H111.621C111.303 3.91834 111.031 3.80725 110.834 3.62042C110.617 3.4033 110.5 3.10034 110.5 2.72163C110.495 2.34798 110.612 2.03997 110.819 1.82285C111.015 1.63097 111.303 1.51988 111.621 1.51988H111.631C112.111 1.52493 112.475 1.7673 112.657 2.1763L112.333 2.29244C112.202 1.98948 111.965 1.82285 111.631 1.82285H111.616C111.409 1.82285 111.228 1.88849 111.086 2.02482C110.925 2.1763 110.849 2.41867 110.849 2.72163C110.849 3.37805 111.253 3.62042 111.631 3.62042C111.955 3.62042 112.202 3.44369 112.333 3.14073L112.657 3.25687V3.26192ZM111.631 3.56488C111.238 3.56488 110.899 3.31241 110.899 2.72668C110.899 2.14096 111.238 1.87334 111.631 1.88344C111.924 1.88849 112.182 2.03492 112.303 2.37323L112.732 2.21165C112.545 1.72186 112.116 1.47444 111.637 1.47444C111 1.46434 110.445 1.87839 110.45 2.72668C110.455 3.56488 111 3.97893 111.637 3.97893C112.121 3.96883 112.545 3.72646 112.732 3.23162L112.303 3.07509C112.182 3.4134 111.929 3.56488 111.631 3.56488ZM112.657 3.26192C112.48 3.67092 112.111 3.91329 111.631 3.91834H111.621C111.303 3.91834 111.031 3.80725 110.834 3.62042C110.617 3.4033 110.5 3.10034 110.5 2.72163C110.495 2.34798 110.612 2.03997 110.819 1.82285C111.015 1.63097 111.303 1.51988 111.621 1.51988H111.631C112.111 1.52493 112.475 1.7673 112.657 2.1763L112.333 2.29244C112.202 1.98948 111.965 1.82285 111.631 1.82285H111.616C111.409 1.82285 111.228 1.88849 111.086 2.02482C110.925 2.1763 110.849 2.41867 110.849 2.72163C110.849 3.37805 111.253 3.62042 111.631 3.62042C111.955 3.62042 112.202 3.44369 112.333 3.14073L112.657 3.25687V3.26192ZM111.631 3.56488C111.238 3.56488 110.899 3.31241 110.899 2.72668C110.899 2.14096 111.238 1.87334 111.631 1.88344C111.924 1.88849 112.182 2.03492 112.303 2.37323L112.732 2.21165C112.545 1.72186 112.116 1.47444 111.637 1.47444C111 1.46434 110.445 1.87839 110.45 2.72668C110.455 3.56488 111 3.97893 111.637 3.97893C112.121 3.96883 112.545 3.72646 112.732 3.23162L112.303 3.07509C112.182 3.4134 111.929 3.56488 111.631 3.56488ZM112.657 3.26192C112.48 3.67092 112.111 3.91329 111.631 3.91834H111.621C111.303 3.91834 111.031 3.80725 110.834 3.62042C110.617 3.4033 110.5 3.10034 110.5 2.72163C110.495 2.34798 110.612 2.03997 110.819 1.82285C111.015 1.63097 111.303 1.51988 111.621 1.51988H111.631C112.111 1.52493 112.475 1.7673 112.657 2.1763L112.333 2.29244C112.202 1.98948 111.965 1.82285 111.631 1.82285H111.616C111.409 1.82285 111.228 1.88849 111.086 2.02482C110.925 2.1763 110.849 2.41867 110.849 2.72163C110.849 3.37805 111.253 3.62042 111.631 3.62042C111.955 3.62042 112.202 3.44369 112.333 3.14073L112.657 3.25687V3.26192Z" fill="white"/>
<path d="M47.2066 11.0783C48.6709 10.1745 49.4939 8.74548 49.6555 6.83682C49.6656 6.75098 49.6707 6.64999 49.6808 6.54396C49.6808 6.52376 49.6808 6.50356 49.6808 6.47831V6.41267C49.6808 6.35208 49.6808 6.29654 49.6808 6.23594C49.6808 6.08446 49.6757 5.93298 49.6606 5.76635C49.6606 5.72091 49.6505 5.67546 49.6454 5.63002C49.4637 3.44364 48.4184 1.89348 46.53 1.03509H46.5199C45.3333 0.489759 44.1063 0.373624 43.4852 0.353426C43.1873 0.343328 43.0005 0.353426 43.0005 0.353426H33.6692V19.8238H37.123V13.1839H46.6714V19.8238H50.1857V11.0783H47.1965H47.2066ZM46.3684 7.05394C46.3431 7.94263 45.9594 10.0129 42.95 10.028H37.128V3.41335H42.6369C42.6369 3.41335 42.7429 3.41335 42.9045 3.41335H42.9449C45.9543 3.42849 46.3381 5.49874 46.3633 6.38742V7.04889L46.3684 7.05394Z" fill="white"/>
<path d="M68.3836 0.318115H61.7235H58.2445H51.5844V3.79208H58.2445V19.8238H61.7235V3.79208H68.3836V0.318115Z" fill="white"/>
<path d="M106.633 19.8238V16.3499H94.9332V11.8105H106.022V8.33147H94.9332V3.79208H106.633V0.318115H94.9332H91.4542V3.79208V8.33147V11.8105V16.3499V19.8238H94.9332H106.633Z" fill="white"/>
<path d="M31.5889 19.8238H28.0341L26.0144 12.9718H18.5716L16.5518 19.8238H12.9971L18.7382 0.333252H22.2728L22.2879 0.338301L19.5007 9.81092H25.0853L22.298 0.338301L22.3132 0.333252H25.8528L31.5889 19.8238Z" fill="white"/>
<path d="M21.4093 24.9338H17.9354V44.4445H21.4093V24.9338Z" fill="white"/>
<path d="M14.4059 32.9875V36.4615H3.47397V44.4395H0V28.4077H3.47397V32.9875H14.4059Z" fill="white"/>
<path d="M15.2137 24.9338H3.479V28.4077H15.2137V24.9338Z" fill="white"/>
<path d="M104.381 24.9338V28.4077V32.9471V36.4261V40.9655V44.4395H107.855H119.554V40.9655H107.855V36.4261H118.948V32.9471H107.855V28.4077H119.554V24.9338H107.855H104.381Z" fill="white"/>
<path d="M61.7538 44.4395H58.194L56.1793 37.5876H48.7315L46.7168 44.4395H43.162L48.8981 24.949H52.4377L52.4529 24.954L49.6606 34.4266H55.2502L52.4579 24.954L52.4731 24.949H56.0127L61.7538 44.4395Z" fill="white"/>
<path d="M37.4815 39.0468L27.9382 25.267L27.7109 24.9338H27.6554H26.9889H24.1814V44.4395H27.6554V30.4931L37.2997 44.4395H38.1076H38.5671H40.9554V24.9338H37.4815V39.0468Z" fill="white"/>
<path d="M77.0988 39.0468L67.5606 25.267L67.3334 24.9338H67.2728H66.6113H63.7988V44.4395H67.2728V30.4931L76.9171 44.4395H77.725H78.1845H80.5779V24.9338H77.0988V39.0468Z" fill="white"/>
<path d="M101.785 38.4914C101.684 38.865 101.568 39.2235 101.427 39.5669C100.917 40.8545 100.159 41.9552 99.1747 42.8187C97.5538 44.2426 95.3523 44.995 92.8125 44.995C87.0814 44.995 83.2288 40.8545 83.2288 34.6942C83.2288 31.8262 84.1275 29.2409 85.7585 27.4029C87.4904 25.4539 89.9343 24.4188 92.8125 24.4188C95.3523 24.4188 97.5538 25.1711 99.1747 26.595C100.149 27.4484 100.907 28.539 101.417 29.8064L98.2001 31.089C97.983 30.4831 97.675 29.968 97.2913 29.5388C96.2915 28.4229 94.7666 27.8927 92.7872 27.8927C88.985 27.8927 86.7128 30.2407 86.7128 34.6942C86.7128 39.1478 88.985 41.521 92.7872 41.521C95.1705 41.521 96.8974 40.7484 97.8366 39.1074C97.983 38.8549 98.1042 38.5772 98.2102 38.2793C98.2254 38.249 98.2355 38.2136 98.2456 38.1834C98.3112 37.9965 98.3668 37.7996 98.4122 37.5926L101.785 38.4863V38.4914Z" fill="white"/>
<path d="M88.4246 6.19053C87.036 2.25707 83.3853 0 78.4066 0H73.6451V3.32249H79.0984C81.9311 3.32249 84.1478 4.81205 85.0263 7.30644C85.3344 8.11434 85.4909 9.02323 85.4909 10.0129C85.4909 11.0026 85.3495 11.8408 85.0516 12.6941C84.1629 15.2087 81.9361 16.7134 79.0933 16.7134H73.64V20.0511H78.4016C83.3853 20.0511 87.041 17.8041 88.4195 13.8858C88.8386 12.6891 89.0507 11.3914 89.0507 10.023C89.0507 8.65462 88.8437 7.40238 88.4195 6.19053H88.4246Z" fill="white"/>
<path d="M73.6451 3.32251H70.1761V16.7134H73.6451V3.32251Z" fill="white"/>
</g>
<defs>
<clipPath id="clip0_1022_34500">
<rect width="119.554" height="45" fill="white"/>
</clipPath>
</defs>
</svg>
