<svg width="36" height="45" viewBox="0 0 36 45" fill="none" xmlns="http://www.w3.org/2000/svg">
<path d="M30.6619 26.7178L22.4261 33.2386H15.4108L5.18066 20.9844L9.66071 17.439L17.6385 11.1211L22.317 16.7241L19.102 19.5015C17.8915 20.4917 17.7278 22.2644 18.7448 23.4478C19.7569 24.6263 21.5827 24.7857 22.7932 23.7955L25.9288 21.2404L30.6619 26.7178Z" fill="url(#paint0_linear_2_7973)"/>
<path d="M30.6619 26.7178L22.4261 33.2386H15.4108L5.18066 20.9844L9.66071 17.439L17.6385 11.1211L22.317 16.7241L19.102 19.5015C17.8915 20.4917 17.7278 22.2644 18.7448 23.4478C19.7569 24.6263 21.5827 24.7857 22.7932 23.7955L25.9288 21.2404L30.6619 26.7178Z" fill="url(#paint1_linear_2_7973)"/>
<path d="M30.6619 26.7178L22.4261 33.2386H15.4108L5.18066 20.9844L9.66071 17.439L17.6385 11.1211L22.317 16.7241L19.102 19.5015C17.8915 20.4917 17.7278 22.2644 18.7448 23.4478C19.7569 24.6263 21.5827 24.7857 22.7932 23.7955L25.9288 21.2404L30.6619 26.7178Z" stroke="white" stroke-miterlimit="10" stroke-linejoin="round"/>
<path d="M31.7233 16.5258L25.9285 21.2401L22.7929 23.7953C21.5824 24.7854 19.7566 24.626 18.7445 23.4475C17.7275 22.2641 17.8912 20.4914 19.1017 19.5012L22.3167 16.7238L17.6382 11.1208L9.6604 17.4387C9.79436 15.2216 9.23373 12.4346 10.8858 10.6233C13.0539 8.25166 15.8322 6.52244 18.303 4.47927C20.5504 2.61481 23.1154 0.929068 26.1914 1.00152C29.198 1.07397 32.0408 2.63413 33.6334 5.12168C36.0396 8.87958 35.1416 13.7774 31.7233 16.5258Z" fill="url(#paint2_linear_2_7973)" stroke="white" stroke-miterlimit="10" stroke-linejoin="round"/>
<path d="M31.9967 16.3037L31.7239 16.5259" stroke="white" stroke-miterlimit="10" stroke-linejoin="round"/>
<path d="M26.5834 13.0483L22.3167 16.7241" stroke="white" stroke-miterlimit="10" stroke-linejoin="round"/>
<path d="M34.2934 26.394V33.2384H22.426" stroke="white" stroke-miterlimit="10" stroke-linejoin="round"/>
<path d="M5.25513 26.5293V33.2385H15.4109" stroke="white" stroke-miterlimit="10" stroke-linejoin="round"/>
<path d="M1.74707 6.50928L6.95671 8.99869" stroke="white" stroke-miterlimit="10" stroke-linejoin="round"/>
<path d="M9.05786 1.12256L10.2852 6.38538" stroke="white" stroke-miterlimit="10" stroke-linejoin="round"/>
<path d="M1.00004 15.9792L6.13275 14.2953" stroke="white" stroke-miterlimit="10" stroke-linejoin="round"/>
<path d="M9.4736 44.5549L12.5936 36.3949H11.3168L8.84 42.8845L6.3536 36.3949H5.0768L8.1968 44.5549H9.4736ZM12.461 41.6653C12.461 43.3357 13.6994 44.6125 15.293 44.6125C16.8866 44.6125 18.1154 43.3357 18.1154 41.6653C18.1154 40.0045 16.8866 38.7277 15.293 38.7277C13.6994 38.7277 12.461 40.0045 12.461 41.6653ZM15.293 39.9277C16.2146 39.9277 16.9154 40.6765 16.9154 41.6653C16.9154 42.6637 16.2146 43.4125 15.293 43.4125C14.3714 43.4125 13.661 42.6637 13.661 41.6653C13.661 40.6765 14.3714 39.9277 15.293 39.9277ZM19.8186 37.5757L19.5306 38.7949H18.6762V39.9277H19.5306V42.5773C19.5306 43.9885 20.1066 44.5549 21.4794 44.5549H21.9786V43.3645H21.5946C20.9994 43.3645 20.7306 43.1053 20.7306 42.5101V39.9277H21.9786V38.7949H20.7306V37.5757H19.8186ZM26.6565 42.7885C26.4357 43.1917 25.9557 43.4701 25.3605 43.4701C24.5445 43.4701 23.9301 42.9229 23.7765 42.0877H28.1061C28.1349 41.9437 28.1445 41.7805 28.1445 41.6269C28.1445 39.9757 26.9253 38.7181 25.3413 38.7181C23.7477 38.7181 22.5381 39.9853 22.5381 41.6557C22.5381 43.3837 23.7093 44.6029 25.3701 44.6029C26.5221 44.6029 27.5397 43.8637 27.9333 42.7885H26.6565ZM23.7765 41.2141C23.9397 40.3981 24.5445 39.8509 25.3413 39.8509C26.1381 39.8509 26.7525 40.4077 26.9061 41.2141H23.7765Z" fill="white"/>
<defs>
<linearGradient id="paint0_linear_2_7973" x1="17.9213" y1="11.1211" x2="17.9213" y2="33.2386" gradientUnits="userSpaceOnUse">
<stop stop-color="#B9B9B9"/>
<stop offset="1" stop-color="#898989" stop-opacity="0.35"/>
</linearGradient>
<linearGradient id="paint1_linear_2_7973" x1="17.9213" y1="11.1211" x2="17.9213" y2="33.2386" gradientUnits="userSpaceOnUse">
<stop stop-color="white"/>
<stop offset="1" stop-opacity="0.35"/>
</linearGradient>
<linearGradient id="paint2_linear_2_7973" x1="22.3242" y1="0.999268" x2="22.3242" y2="24.4457" gradientUnits="userSpaceOnUse">
<stop stop-color="white"/>
<stop offset="1" stop-opacity="0.35"/>
</linearGradient>
</defs>
</svg>
