<svg width="22" height="22" viewBox="0 0 22 22" fill="none" xmlns="http://www.w3.org/2000/svg">
<path d="M11.0001 4.58325C4.00319 4.58325 1.90035 10.6488 1.8811 10.7103L1.78394 10.9999L1.88019 11.2896C1.90035 11.351 4.00319 17.4166 11.0001 17.4166C17.997 17.4166 20.0999 11.351 20.1191 11.2896L20.2163 10.9999L20.12 10.7103C20.0999 10.6488 17.997 4.58325 11.0001 4.58325ZM11.0001 14.6666C8.97794 14.6666 7.33344 13.0221 7.33344 10.9999C7.33344 8.97775 8.97794 7.33325 11.0001 7.33325C13.0223 7.33325 14.6668 8.97775 14.6668 10.9999C14.6668 13.0221 13.0223 14.6666 11.0001 14.6666Z" fill="#BBBBBB"/>
<path d="M11.0001 9.16675C10.0064 9.16675 9.16675 10.0064 9.16675 11.0001C9.16675 11.9937 10.0064 12.8334 11.0001 12.8334C11.9937 12.8334 12.8334 11.9937 12.8334 11.0001C12.8334 10.0064 11.9937 9.16675 11.0001 9.16675Z" fill="#BBBBBB"/>
</svg>
