<svg width="20" height="20" viewBox="0 0 20 20" fill="none" xmlns="http://www.w3.org/2000/svg">
<path d="M17.2558 4.85502L14.3099 1.91086C14.1546 1.75528 13.9441 1.66745 13.7243 1.66651C13.5045 1.66557 13.2932 1.75161 13.1366 1.90586L5.91325 9.01669C5.80066 9.12813 5.7218 9.26909 5.68575 9.42335L4.83242 13.1209L3.33325 15H5.68992L6.64159 14.0592L9.63158 13.3692C9.78158 13.3342 9.91909 13.2584 10.0291 13.1509L17.2516 6.03835C17.33 5.96116 17.3923 5.86921 17.435 5.76781C17.4776 5.66641 17.4998 5.55757 17.5002 5.44756C17.5006 5.33755 17.4792 5.22855 17.4372 5.12685C17.3953 5.02515 17.3336 4.93277 17.2558 4.85502ZM9.44825 11.3825L7.68075 9.61585L13.7166 3.67336L15.4833 5.44002L9.44825 11.3825ZM3.33325 16.6667H16.6666V18.3334H3.33325V16.6667Z" fill="#555555"/>
</svg>
