<svg width="32" height="32" viewBox="0 0 32 32" fill="none" xmlns="http://www.w3.org/2000/svg">
  <path d="M16 32C24.8366 32 32 24.8366 32 16C32 7.16345 24.8366 0 16 0C7.16344 0 0 7.16345 0 16C0 24.8366 7.16344 32 16 32Z" fill="black"/>
  <path d="M24.8743 14.7604C25.5728 14.7604 26.139 15.3266 26.139 16.0251C26.139 16.7237 25.5728 17.2899 24.8743 17.2899H21.146C19.5442 17.2899 18.2457 18.5884 18.2457 20.1902V21.8258C18.2457 22.5243 17.6795 23.0905 16.9809 23.0905C16.2824 23.0905 15.7162 22.5243 15.7162 21.8258V12.7032C15.7162 12.0047 16.2824 11.4385 16.9809 11.4385C17.6795 11.4385 18.2457 12.0047 18.2457 12.7032V13.0994C18.2457 14.0167 18.9893 14.7604 19.9067 14.7604H24.8743Z" fill="white"/>
  <path d="M24.8734 8.90894H19.5096C18.8111 8.90894 18.2449 9.47519 18.2449 10.1737C18.2449 10.8722 18.8111 11.4385 19.5096 11.4385H24.8734C25.572 11.4385 26.1382 10.8722 26.1382 10.1737C26.1382 9.47519 25.572 8.90894 24.8734 8.90894Z" fill="white"/>
  <path d="M12.3705 8.90918C10.8705 8.90918 9.55397 9.90766 9.14943 11.352L6.29304 21.5503C6.07635 22.3239 6.65791 23.0908 7.46135 23.0908C8.00513 23.0908 8.4825 22.7289 8.62946 22.2054L9.73408 18.2702C9.89507 17.6967 10.418 17.3003 11.0137 17.3003C11.7478 17.3003 12.3428 16.7052 12.3428 15.9712V13.1149C12.3428 12.1835 13.0978 11.4285 14.0292 11.4285H14.4559C15.1516 11.4285 15.7155 10.8646 15.7155 10.1689C15.7155 9.47316 15.1516 8.90918 14.4559 8.90918H12.3705Z" fill="white"/>
</svg>
