<svg width="14" height="13" viewBox="0 0 14 13" fill="none" xmlns="http://www.w3.org/2000/svg">
<path d="M10.3433 4.38897C10.1057 4.24654 9.80026 4.24654 9.52872 4.38897L7.62794 5.56404L6.33812 6.31182L4.47128 7.48689C4.23368 7.62933 3.9282 7.62933 3.65666 7.48689L2.19713 6.56108C1.95953 6.41864 1.78982 6.13378 1.78982 5.8133V4.03289C1.78982 3.74802 1.92559 3.46315 2.19713 3.28511L3.65666 2.3949C3.89426 2.25247 4.19974 2.25247 4.47128 2.3949L5.93081 3.32072C6.16841 3.46315 6.33812 3.74802 6.33812 4.06849V5.24357L7.62794 4.46019V3.2495C7.62794 2.96464 7.49217 2.67977 7.22063 2.50173L4.50522 0.828138C4.26762 0.685705 3.96214 0.685705 3.6906 0.828138L0.907311 2.53734C0.63577 2.67977 0.5 2.96464 0.5 3.2495V6.59668C0.5 6.88155 0.63577 7.16642 0.907311 7.34446L3.65666 9.01805C3.89426 9.16048 4.19974 9.16048 4.47128 9.01805L6.33812 7.87858L7.62794 7.0952L9.49478 5.95573C9.73238 5.8133 10.0379 5.8133 10.3094 5.95573L11.7689 6.84594C12.0065 6.98838 12.1762 7.27324 12.1762 7.59372V9.37413C12.1762 9.659 12.0405 9.94386 11.7689 10.1219L10.3433 11.0121C10.1057 11.1545 9.80026 11.1545 9.52872 11.0121L8.06919 10.1219C7.83159 9.97947 7.66188 9.69461 7.66188 9.37413V8.23467L6.37206 9.01805V10.1931C6.37206 10.478 6.50783 10.7629 6.77937 10.9409L9.52872 12.6145C9.76632 12.7569 10.0718 12.7569 10.3433 12.6145L13.0927 10.9409C13.3303 10.7985 13.5 10.5136 13.5 10.1931V6.81033C13.5 6.52547 13.3642 6.2406 13.0927 6.06256L10.3433 4.38897Z" fill="#8247E5"/>
</svg>
